<svg width="191" height="40" viewBox="0 0 191 40" fill="none" xmlns="http://www.w3.org/2000/svg">
  <line x1="6.0" y1="28.0" x2="34.0" y2="28.0" stroke="#080808" stroke-width="3.5" stroke-linecap="round"/>
  <path d="M11.0 12.0 L20.0 23.0 L29.0 12.0" stroke="#080808" stroke-width="3.5" stroke-linecap="round" stroke-linejoin="round" fill="none"/>
  <path d="M61.35 27.26 Q59.59 27.26 58.09 26.63 Q56.60 25.99 55.48 24.84 Q54.35 23.70 53.73 22.16 Q53.10 20.62 53.10 18.79 Q53.10 16.97 53.70 15.42 Q54.31 13.87 55.42 12.73 Q56.53 11.60 58.03 10.97 Q59.52 10.35 61.28 10.35 Q63.04 10.35 64.44 10.94 Q65.84 11.53 66.81 12.51 Q67.77 13.49 68.19 14.66 L65.53 15.93 Q65.07 14.66 63.97 13.87 Q62.87 13.07 61.28 13.07 Q59.74 13.07 58.57 13.80 Q57.39 14.53 56.74 15.80 Q56.09 17.08 56.09 18.79 Q56.09 20.51 56.76 21.80 Q57.43 23.08 58.62 23.81 Q59.81 24.54 61.35 24.54 Q62.60 24.54 63.66 24.04 Q64.72 23.55 65.35 22.63 Q65.99 21.72 65.99 20.47 L65.99 19.21 L67.36 20.40 L61.28 20.40 L61.28 17.87 L68.98 17.87 L68.98 19.52 Q68.98 21.41 68.35 22.86 Q67.71 24.32 66.62 25.30 Q65.53 26.27 64.17 26.77 Q62.80 27.26 61.35 27.26 Z M70.62 27.00 L70.62 15.03 L73.32 15.03 L73.32 17.69 L73.10 17.30 Q73.52 15.96 74.41 15.43 Q75.30 14.90 76.56 14.90 L77.26 14.90 L77.26 17.45 L76.23 17.45 Q75.00 17.45 74.25 18.21 Q73.50 18.97 73.50 20.33 L73.50 27.00 Z M84.20 27.26 Q82.44 27.26 81.00 26.45 Q79.56 25.64 78.71 24.23 Q77.86 22.82 77.86 21.02 Q77.86 19.21 78.71 17.80 Q79.56 16.40 80.99 15.58 Q82.42 14.77 84.20 14.77 Q85.96 14.77 87.39 15.58 Q88.82 16.40 89.66 17.79 Q90.51 19.19 90.51 21.02 Q90.51 22.82 89.65 24.23 Q88.80 25.64 87.37 26.45 Q85.94 27.26 84.20 27.26 Z M84.20 24.62 Q85.17 24.62 85.90 24.16 Q86.64 23.70 87.07 22.88 Q87.50 22.05 87.50 21.02 Q87.50 19.96 87.07 19.16 Q86.64 18.35 85.90 17.88 Q85.17 17.41 84.20 17.41 Q83.21 17.41 82.46 17.88 Q81.71 18.35 81.28 19.16 Q80.85 19.96 80.85 21.02 Q80.85 22.05 81.28 22.88 Q81.71 23.70 82.46 24.16 Q83.21 24.62 84.20 24.62 Z M96.46 27.26 Q95.07 27.26 94.05 26.65 Q93.03 26.03 92.49 24.93 Q91.95 23.83 91.95 22.36 L91.95 15.03 L94.83 15.03 L94.83 22.12 Q94.83 22.86 95.13 23.43 Q95.42 23.99 95.98 24.30 Q96.55 24.62 97.25 24.62 Q97.95 24.62 98.50 24.30 Q99.05 23.99 99.36 23.41 Q99.67 22.84 99.67 22.05 L99.67 15.03 L102.55 15.03 L102.55 27.00 L99.82 27.00 L99.82 24.65 L100.07 25.06 Q99.65 26.16 98.69 26.71 Q97.73 27.26 96.46 27.26 Z M104.74 27.00 L104.74 15.03 L107.44 15.03 L107.44 17.39 L107.22 16.97 Q107.64 15.89 108.60 15.33 Q109.55 14.77 110.83 14.77 Q112.15 14.77 113.17 15.34 Q114.20 15.91 114.77 16.94 Q115.34 17.96 115.34 19.30 L115.34 27.00 L112.46 27.00 L112.46 19.98 Q112.46 19.19 112.15 18.62 Q111.84 18.05 111.30 17.73 Q110.76 17.41 110.04 17.41 Q109.33 17.41 108.78 17.73 Q108.23 18.05 107.93 18.62 Q107.62 19.19 107.62 19.98 L107.62 27.00 Z M122.85 27.26 Q121.11 27.26 119.75 26.44 Q118.38 25.61 117.59 24.18 Q116.80 22.75 116.80 21.02 Q116.80 19.26 117.59 17.85 Q118.38 16.44 119.76 15.60 Q121.13 14.77 122.83 14.77 Q124.19 14.77 125.26 15.31 Q126.32 15.85 126.94 16.81 L126.50 17.41 L126.50 10.35 L129.38 10.35 L129.38 27.00 L126.65 27.00 L126.65 24.69 L126.96 25.26 Q126.35 26.23 125.25 26.75 Q124.15 27.26 122.85 27.26 Z M123.16 24.62 Q124.15 24.62 124.89 24.16 Q125.64 23.70 126.07 22.89 Q126.50 22.07 126.50 21.02 Q126.50 19.98 126.07 19.16 Q125.64 18.33 124.89 17.87 Q124.15 17.41 123.16 17.41 Q122.19 17.41 121.42 17.88 Q120.65 18.35 120.22 19.16 Q119.79 19.96 119.79 21.02 Q119.79 22.07 120.22 22.89 Q120.65 23.70 121.42 24.16 Q122.19 24.62 123.16 24.62 Z M134.58 27.00 L130.47 15.03 L133.50 15.03 L136.52 24.12 L135.46 24.10 L138.67 15.03 L141.22 15.03 L144.41 24.10 L143.36 24.12 L146.37 15.03 L149.41 15.03 L145.29 27.00 L142.72 27.00 L139.46 17.52 L140.43 17.52 L137.13 27.00 Z M156.34 27.26 Q154.58 27.26 153.14 26.45 Q151.70 25.64 150.85 24.23 Q150.01 22.82 150.01 21.02 Q150.01 19.21 150.85 17.80 Q151.70 16.40 153.13 15.58 Q154.56 14.77 156.34 14.77 Q158.10 14.77 159.53 15.58 Q160.96 16.40 161.81 17.79 Q162.66 19.19 162.66 21.02 Q162.66 22.82 161.80 24.23 Q160.94 25.64 159.51 26.45 Q158.08 27.26 156.34 27.26 Z M156.34 24.62 Q157.31 24.62 158.05 24.16 Q158.79 23.70 159.21 22.88 Q159.64 22.05 159.64 21.02 Q159.64 19.96 159.21 19.16 Q158.79 18.35 158.05 17.88 Q157.31 17.41 156.34 17.41 Q155.35 17.41 154.61 17.88 Q153.86 18.35 153.43 19.16 Q153.00 19.96 153.00 21.02 Q153.00 22.05 153.43 22.88 Q153.86 23.70 154.61 24.16 Q155.35 24.62 156.34 24.62 Z M164.34 27.00 L164.34 15.03 L167.04 15.03 L167.04 17.69 L166.82 17.30 Q167.24 15.96 168.13 15.43 Q169.02 14.90 170.28 14.90 L170.98 14.90 L170.98 17.45 L169.95 17.45 Q168.71 17.45 167.97 18.21 Q167.22 18.97 167.22 20.33 L167.22 27.00 Z M172.06 27.00 L172.06 10.35 L174.95 10.35 L174.95 21.26 L173.85 20.93 L179.48 15.03 L183.06 15.03 L178.64 19.85 L183.15 27.00 L179.85 27.00 L175.94 20.80 L177.65 20.44 L174.04 24.32 L174.95 22.56 L174.95 27.00 Z" fill="#080808"/>
</svg>